<?xml version="1.0" encoding="UTF-8" standalone="no"?>
<!DOCTYPE svg PUBLIC "-//W3C//DTD SVG 1.1//EN" "http://www.w3.org/Graphics/SVG/1.1/DTD/svg11.dtd">
<svg xmlns="http://www.w3.org/2000/svg" version="1.1" viewBox="0 0 719 72">
<path fill="rgb(74,73,71)" fill-opacity="1.000" d="M 0.00 0.00 Q 341.78 0.00 683.56 0.00 Q 683.65 0.33 684.00 0.71 Q 682.55 0.02 681.40 0.25 Q 680.87 0.35 681.25 0.74 Q 697.46 17.16 713.88 33.23 Q 715.03 34.36 714.20 35.75 Q 713.54 36.98 711.75 38.50 Q 711.04 39.10 710.06 40.56 Q 708.41 43.24 706.25 43.75 Q 706.14 43.79 704.06 45.81 Q 692.91 56.65 681.80 69.18 Q 681.32 69.71 680.61 69.80 Q 678.38 70.34 675.75 70.25 Q 664.18 69.88 650.00 69.75 Q 649.50 69.75 649.01 69.83 Q 643.52 70.75 638.24 69.84 Q 637.75 69.75 637.25 69.75 Q 625.29 69.85 614.50 69.75 Q 606.45 69.68 598.25 69.75 Q 579.54 70.19 560.50 69.75 Q 552.34 69.56 543.00 69.75 Q 539.39 69.94 536.50 69.75 Q 520.71 68.85 506.00 69.72 Q 505.50 69.75 505.00 69.75 Q 473.10 69.70 440.50 69.50 Q 438.61 69.49 436.94 69.69 Q 424.89 69.54 413.00 70.00 Q 409.31 70.14 405.25 70.00 Q 396.17 69.41 387.94 69.91 Q 387.44 69.94 386.94 69.93 Q 310.39 69.80 233.25 69.75 Q 214.08 69.74 194.50 69.50 Q 182.48 69.47 170.00 69.75 Q 132.81 69.59 95.81 69.94 Q 89.07 70.00 83.31 69.81 Q 49.47 69.80 15.00 69.75 Q 9.07 69.74 2.25 69.73 Q 1.75 69.75 1.29 69.55 Q 0.45 69.17 0.00 69.19 Q 0.00 66.69 0.00 64.19 Q 0.48 64.41 0.49 64.31 Q 0.56 63.81 1.05 63.91 Q 3.67 64.31 8.00 64.25 Q 16.02 64.61 24.00 64.25 Q 30.80 63.94 37.50 64.25 Q 41.84 64.75 45.51 64.11 Q 46.00 64.00 46.50 63.99 Q 54.04 63.87 62.00 63.52 Q 62.50 63.50 63.00 63.55 Q 72.09 64.27 84.25 64.25 Q 96.99 63.85 109.75 64.25 Q 116.39 64.46 122.75 64.50 Q 128.13 64.22 133.50 64.50 Q 135.41 64.69 137.75 64.25 Q 141.54 63.62 143.83 64.30 Q 144.31 64.44 144.81 64.43 Q 159.91 63.90 175.50 63.75 Q 185.21 63.66 195.00 64.50 Q 198.52 64.67 202.20 64.05 Q 202.69 63.94 203.19 63.92 Q 211.43 64.02 220.50 63.50 Q 225.37 63.22 229.20 63.93 Q 229.69 64.06 230.19 64.10 Q 239.45 64.77 246.01 63.59 Q 246.50 63.50 247.00 63.52 Q 263.46 64.03 279.94 64.55 Q 280.44 64.56 280.75 64.95 Q 280.91 65.14 282.00 65.00 Q 290.75 63.88 299.00 64.94 Q 299.50 65.00 300.00 64.93 Q 306.75 64.03 315.00 64.47 Q 315.50 64.50 316.00 64.48 Q 328.52 64.15 340.00 64.25 Q 346.07 64.30 350.19 62.94 Q 354.37 61.76 357.56 63.19 Q 361.19 64.17 365.56 63.81 Q 374.90 62.62 382.69 63.31 Q 384.67 63.49 386.69 64.06 Q 396.87 64.75 406.50 64.27 Q 407.00 64.25 407.47 64.07 Q 409.41 63.32 412.00 64.00 Q 415.94 65.03 418.53 64.16 Q 419.00 64.00 419.50 63.99 Q 424.00 63.69 427.50 64.25 Q 430.91 64.79 433.52 64.15 Q 434.00 64.00 434.50 64.00 Q 444.52 63.53 455.00 64.00 Q 456.77 64.08 458.50 64.50 Q 485.32 63.72 511.50 64.24 Q 512.00 64.25 512.48 64.11 Q 513.83 63.70 516.00 63.75 Q 524.48 63.93 533.00 63.76 Q 533.50 63.75 534.00 63.81 Q 541.10 64.63 548.25 64.00 Q 554.49 63.45 560.31 63.56 Q 575.70 63.74 590.75 64.23 Q 591.25 64.25 591.75 64.21 Q 602.91 63.20 612.00 64.00 Q 615.70 64.32 619.25 64.25 Q 623.61 63.74 628.00 64.25 Q 632.52 64.78 638.67 63.69 Q 639.88 63.44 640.14 62.23 Q 640.42 58.61 640.25 53.50 Q 640.13 47.50 635.94 44.06 Q 631.69 40.58 626.53 35.37 Q 625.84 34.65 625.15 35.37 Q 614.05 47.11 601.81 58.35 Q 601.44 58.69 601.01 58.94 Q 597.11 61.27 591.28 59.42 Q 589.85 58.97 590.93 57.92 Q 607.62 41.74 624.00 24.50 Q 625.11 23.34 626.44 24.23 Q 629.74 26.29 633.31 30.44 Q 635.99 33.54 638.54 36.04 Q 639.57 36.97 639.82 35.60 Q 639.97 32.41 640.00 25.50 Q 640.01 21.99 638.19 20.06 Q 632.79 15.46 630.30 12.51 Q 628.32 10.35 631.25 10.50 Q 634.92 10.77 638.50 11.25 Q 640.69 11.54 640.40 8.14 Q 640.22 6.31 638.39 6.16 Q 637.04 6.05 634.25 6.25 Q 631.31 6.19 629.00 5.75 Q 623.80 4.76 620.23 5.85 Q 619.75 6.00 619.25 6.03 Q 610.59 6.51 602.00 6.74 Q 601.50 6.75 601.07 6.50 Q 599.20 5.43 596.73 6.12 Q 596.25 6.25 595.75 6.23 Q 588.36 5.91 580.75 6.23 Q 580.25 6.25 579.76 6.15 Q 572.29 4.35 564.00 5.50 Q 558.97 6.20 553.69 5.81 Q 548.10 5.15 542.50 5.75 Q 530.14 7.56 521.25 6.75 Q 512.86 5.98 502.75 6.21 Q 502.25 6.25 501.76 6.15 Q 493.96 4.49 485.44 5.69 Q 482.38 6.12 478.50 6.00 Q 467.37 5.38 456.75 6.25 Q 449.72 6.82 443.25 6.97 Q 442.75 7.00 442.27 6.86 Q 437.36 5.48 431.69 6.13 Q 431.19 6.19 430.70 6.08 Q 428.76 5.67 426.31 6.06 Q 424.55 6.35 423.88 6.07 Q 423.50 5.75 423.00 5.69 Q 414.01 4.61 403.25 6.00 Q 401.29 6.25 399.75 6.00 Q 391.74 4.84 382.75 5.94 Q 382.25 6.00 381.75 5.96 Q 369.37 5.00 359.75 5.95 Q 359.25 6.00 358.75 5.99 Q 345.25 5.32 331.25 5.50 Q 326.34 5.56 321.25 6.23 Q 320.75 6.25 320.26 6.15 Q 314.53 5.23 308.00 5.75 Q 302.36 6.20 298.25 5.50 Q 290.82 4.77 282.74 5.93 Q 282.25 6.00 281.75 5.98 Q 277.49 5.80 272.75 6.00 Q 270.01 6.12 267.75 6.75 Q 261.17 7.63 253.25 6.75 Q 252.00 6.61 251.35 6.36 Q 251.00 6.00 250.50 5.99 Q 245.39 5.69 239.25 6.50 Q 234.75 7.10 231.23 6.15 Q 230.75 6.00 230.25 6.04 Q 221.25 6.92 212.25 7.00 Q 207.95 7.04 205.73 6.38 Q 205.25 6.25 204.75 6.24 Q 195.29 6.47 185.25 5.75 Q 183.67 5.64 181.50 5.25 Q 174.68 5.61 168.00 6.00 Q 165.60 6.14 163.75 5.75 Q 157.73 5.02 151.50 5.75 Q 146.50 6.34 141.50 5.50 Q 133.72 4.53 126.00 5.75 Q 122.28 6.34 118.81 6.19 Q 106.94 5.57 95.25 5.50 Q 94.75 5.50 94.26 5.57 Q 87.77 6.51 81.00 5.57 Q 80.50 5.50 80.00 5.52 Q 72.75 5.76 65.50 5.98 Q 65.00 6.00 64.51 5.89 Q 59.77 4.76 53.25 5.25 Q 44.33 5.92 35.25 6.00 Q 34.75 6.00 34.27 6.15 Q 29.92 7.51 25.50 7.25 Q 18.25 6.82 13.50 6.76 Q 13.00 6.75 12.52 6.88 Q 8.32 7.97 3.50 7.50 Q 2.20 7.37 1.11 8.14 Q 0.42 8.88 0.51 7.87 Q 0.65 6.35 0.00 7.69 Q 0.00 3.84 0.00 0.00 Z M 656.75 7.25 Q 653.78 7.02 648.74 7.03 Q 647.81 7.07 647.75 8.00 Q 647.51 11.98 648.82 15.28 Q 649.00 15.75 648.94 16.25 Q 648.47 20.15 648.75 24.50 Q 648.85 25.98 648.24 27.54 Q 647.98 29.12 649.13 28.01 Q 659.14 18.34 669.26 8.24 Q 670.14 7.36 668.95 6.98 Q 666.89 6.39 665.50 6.75 Q 661.81 7.70 656.75 7.25 Z M 703.21 33.55 Q 700.03 29.42 695.31 24.69 Q 687.33 16.68 680.00 9.36 Q 678.85 8.23 677.73 9.38 Q 665.57 21.80 653.05 34.19 Q 651.81 35.42 653.16 36.55 Q 659.50 41.84 667.47 49.72 Q 668.09 50.34 668.75 49.75 Q 677.09 42.27 682.36 36.07 Q 682.69 35.69 682.71 35.19 Q 682.78 33.67 679.90 31.13 Q 678.81 30.17 677.67 31.08 Q 674.54 33.58 670.77 37.88 Q 669.57 39.25 668.44 37.81 Q 667.01 35.99 665.06 34.18 Q 664.42 33.58 665.08 33.01 Q 671.43 27.33 675.31 23.06 Q 677.03 21.18 678.51 20.78 Q 679.67 20.34 680.56 21.21 Q 688.17 28.70 692.89 33.51 Q 694.11 34.75 692.97 36.06 Q 688.02 41.87 683.19 46.19 Q 678.29 50.57 675.06 54.56 Q 673.49 56.64 675.81 59.44 Q 678.15 62.25 680.75 60.00 Q 686.53 55.00 689.73 51.19 Q 690.06 50.81 690.30 50.37 Q 692.17 47.19 695.81 44.31 Q 700.51 40.61 703.19 36.94 Q 704.49 35.25 703.21 33.55 Z M 649.61 42.90 Q 648.73 44.38 647.91 48.57 Q 647.81 49.06 647.87 49.56 Q 648.28 52.50 647.75 55.00 Q 647.11 58.01 647.27 61.31 Q 647.42 63.38 649.50 63.50 Q 657.71 63.96 667.68 63.32 Q 670.46 63.14 668.40 61.26 Q 658.78 52.46 650.69 42.81 Q 650.09 42.10 649.61 42.90 Z"/>
<path fill="rgb(51,48,47)" fill-opacity="1.000" d="M 681.40 0.25 Q 682.55 0.02 684.00 0.71 Q 701.22 17.70 717.57 34.19 Q 718.37 35.01 717.56 35.81 Q 698.96 54.37 681.44 72.00 Q 340.72 72.00 0.00 72.00 Q 0.00 70.59 0.00 69.19 Q 0.45 69.17 1.29 69.55 Q 1.75 69.75 2.25 69.73 Q 9.07 69.74 15.00 69.75 Q 49.47 69.80 83.31 69.81 Q 89.07 70.00 95.81 69.94 Q 132.81 69.59 170.00 69.75 Q 182.48 69.47 194.50 69.50 Q 214.08 69.74 233.25 69.75 Q 310.39 69.80 386.94 69.93 Q 387.44 69.94 387.94 69.91 Q 396.17 69.41 405.25 70.00 Q 409.31 70.14 413.00 70.00 Q 424.89 69.54 436.94 69.69 Q 438.61 69.49 440.50 69.50 Q 473.10 69.70 505.00 69.75 Q 505.50 69.75 506.00 69.72 Q 520.71 68.85 536.50 69.75 Q 539.39 69.94 543.00 69.75 Q 552.34 69.56 560.50 69.75 Q 579.54 70.19 598.25 69.75 Q 606.45 69.68 614.50 69.75 Q 625.29 69.85 637.25 69.75 Q 637.75 69.75 638.24 69.84 Q 643.52 70.75 649.01 69.83 Q 649.50 69.75 650.00 69.75 Q 664.18 69.88 675.75 70.25 Q 678.38 70.34 680.61 69.80 Q 681.32 69.71 681.80 69.18 Q 692.91 56.65 704.06 45.81 Q 706.14 43.79 706.25 43.75 Q 708.41 43.24 710.06 40.56 Q 711.04 39.10 711.75 38.50 Q 713.54 36.98 714.20 35.75 Q 715.03 34.36 713.88 33.23 Q 697.46 17.16 681.25 0.74 Q 680.87 0.35 681.40 0.25 Z"/>
<path fill="rgb(56,55,53)" fill-opacity="1.000" d="M 53.25 5.25 Q 59.77 4.76 64.51 5.89 Q 65.00 6.00 65.50 5.98 Q 72.75 5.76 80.00 5.52 Q 80.50 5.50 81.00 5.57 Q 87.77 6.51 94.26 5.57 Q 94.75 5.50 95.25 5.50 Q 106.94 5.57 118.81 6.19 Q 122.28 6.34 126.00 5.75 Q 133.72 4.53 141.50 5.50 Q 146.50 6.34 151.50 5.75 Q 157.73 5.02 163.75 5.75 Q 165.60 6.14 168.00 6.00 Q 174.68 5.61 181.50 5.25 Q 183.67 5.64 185.25 5.75 Q 195.29 6.47 204.75 6.24 Q 205.25 6.25 205.73 6.38 Q 207.95 7.04 212.25 7.00 Q 221.25 6.92 230.25 6.04 Q 230.75 6.00 231.23 6.15 Q 234.75 7.10 239.25 6.50 Q 245.39 5.69 250.50 5.99 Q 251.00 6.00 251.35 6.36 Q 252.00 6.61 253.25 6.75 Q 261.17 7.63 267.75 6.75 Q 270.01 6.12 272.75 6.00 Q 277.49 5.80 281.75 5.98 Q 282.25 6.00 282.74 5.93 Q 290.82 4.77 298.25 5.50 Q 302.36 6.20 308.00 5.75 Q 314.53 5.23 320.26 6.15 Q 320.75 6.25 321.25 6.23 Q 326.34 5.56 331.25 5.50 Q 345.25 5.32 358.75 5.99 Q 359.25 6.00 359.75 5.95 Q 369.37 5.00 381.75 5.96 Q 382.25 6.00 382.75 5.94 Q 391.74 4.84 399.75 6.00 Q 401.29 6.25 403.25 6.00 Q 414.01 4.61 423.00 5.69 Q 423.50 5.75 423.88 6.07 Q 424.55 6.35 426.31 6.06 Q 428.76 5.67 430.70 6.08 Q 431.19 6.19 431.69 6.13 Q 437.36 5.48 442.27 6.86 Q 442.75 7.00 443.25 6.97 Q 449.72 6.82 456.75 6.25 Q 467.37 5.38 478.50 6.00 Q 482.38 6.12 485.44 5.69 Q 493.96 4.49 501.76 6.15 Q 502.25 6.25 502.75 6.21 Q 512.86 5.98 521.25 6.75 Q 530.14 7.56 542.50 5.75 Q 548.10 5.15 553.69 5.81 Q 558.97 6.20 564.00 5.50 Q 572.29 4.35 579.76 6.15 Q 580.25 6.25 580.75 6.23 Q 588.36 5.91 595.75 6.23 Q 596.25 6.25 596.73 6.12 Q 599.20 5.43 601.07 6.50 Q 601.50 6.75 602.00 6.74 Q 610.59 6.51 619.25 6.03 Q 619.75 6.00 620.23 5.85 Q 623.80 4.76 629.00 5.75 Q 631.31 6.19 634.25 6.25 Q 637.04 6.05 638.39 6.16 Q 640.22 6.31 640.40 8.14 Q 640.69 11.54 638.50 11.25 Q 634.92 10.77 631.25 10.50 Q 628.32 10.35 630.30 12.51 Q 632.79 15.46 638.19 20.06 Q 640.01 21.99 640.00 25.50 Q 639.97 32.41 639.82 35.60 Q 639.57 36.97 638.54 36.04 Q 635.99 33.54 633.31 30.44 Q 629.74 26.29 626.44 24.23 Q 625.11 23.34 624.00 24.50 Q 607.62 41.74 590.93 57.92 Q 589.85 58.97 591.28 59.42 Q 597.11 61.27 601.01 58.94 Q 601.44 58.69 601.81 58.35 Q 614.05 47.11 625.15 35.37 Q 625.84 34.65 626.53 35.37 Q 631.69 40.58 635.94 44.06 Q 640.13 47.50 640.25 53.50 Q 640.42 58.61 640.14 62.23 Q 639.88 63.44 638.67 63.69 Q 632.52 64.78 628.00 64.25 Q 623.61 63.74 619.25 64.25 Q 615.70 64.32 612.00 64.00 Q 602.91 63.20 591.75 64.21 Q 591.25 64.25 590.75 64.23 Q 575.70 63.74 560.31 63.56 Q 554.49 63.45 548.25 64.00 Q 541.10 64.63 534.00 63.81 Q 533.50 63.75 533.00 63.76 Q 524.48 63.93 516.00 63.75 Q 513.83 63.70 512.48 64.11 Q 512.00 64.25 511.50 64.24 Q 485.32 63.72 458.50 64.50 Q 456.77 64.08 455.00 64.00 Q 444.52 63.53 434.50 64.00 Q 434.00 64.00 433.52 64.15 Q 430.91 64.79 427.50 64.25 Q 424.00 63.69 419.50 63.99 Q 419.00 64.00 418.53 64.16 Q 415.94 65.03 412.00 64.00 Q 409.41 63.32 407.47 64.07 Q 407.00 64.25 406.50 64.27 Q 396.87 64.75 386.69 64.06 Q 384.67 63.49 382.69 63.31 Q 374.90 62.62 365.56 63.81 Q 361.19 64.17 357.56 63.19 Q 354.37 61.76 350.19 62.94 Q 346.07 64.30 340.00 64.25 Q 328.52 64.15 316.00 64.48 Q 315.50 64.50 315.00 64.47 Q 306.75 64.03 300.00 64.93 Q 299.50 65.00 299.00 64.94 Q 290.75 63.88 282.00 65.00 Q 280.91 65.14 280.75 64.95 Q 280.44 64.56 279.94 64.55 Q 263.46 64.03 247.00 63.52 Q 246.50 63.50 246.01 63.59 Q 239.45 64.77 230.19 64.10 Q 229.69 64.06 229.20 63.93 Q 225.37 63.22 220.50 63.50 Q 211.43 64.02 203.19 63.92 Q 202.69 63.94 202.20 64.05 Q 198.52 64.67 195.00 64.50 Q 185.21 63.66 175.50 63.75 Q 159.91 63.90 144.81 64.43 Q 144.31 64.44 143.83 64.30 Q 141.54 63.62 137.75 64.25 Q 135.41 64.69 133.50 64.50 Q 128.13 64.22 122.75 64.50 Q 116.39 64.46 109.75 64.25 Q 96.99 63.85 84.25 64.25 Q 72.09 64.27 63.00 63.55 Q 62.50 63.50 62.00 63.52 Q 54.04 63.87 46.50 63.99 Q 46.00 64.00 45.51 64.11 Q 41.84 64.75 37.50 64.25 Q 30.80 63.94 24.00 64.25 Q 16.02 64.61 8.00 64.25 Q 3.67 64.31 1.05 63.91 Q 0.56 63.81 0.49 64.31 Q 0.48 64.41 0.00 64.19 Q 0.00 61.94 0.00 59.69 Q 4.98 59.94 10.19 60.19 Q 12.50 60.30 11.75 57.90 Q 11.56 57.44 11.16 57.14 Q 6.08 53.08 2.56 48.44 Q 1.59 47.16 0.00 47.19 Q 0.00 40.44 0.00 33.69 Q 1.90 34.23 2.56 34.94 Q 12.84 45.87 24.33 57.21 Q 24.69 57.56 24.95 57.99 Q 26.16 59.96 29.75 60.00 Q 33.11 60.04 35.44 59.95 Q 35.94 59.94 36.36 59.67 Q 37.48 58.95 36.75 58.25 Q 17.16 39.43 3.25 24.50 Q 0.66 21.61 0.50 23.25 Q 0.42 24.06 0.00 24.19 Q 0.00 15.94 0.00 7.69 Q 0.65 6.35 0.51 7.87 Q 0.42 8.88 1.11 8.14 Q 2.20 7.37 3.50 7.50 Q 8.32 7.97 12.52 6.88 Q 13.00 6.75 13.50 6.76 Q 18.25 6.82 25.50 7.25 Q 29.92 7.51 34.27 6.15 Q 34.75 6.00 35.25 6.00 Q 44.33 5.92 53.25 5.25 Z M 379.81 20.31 Q 384.52 15.67 388.31 11.81 Q 389.54 10.43 387.71 10.18 Q 385.59 9.88 383.24 10.39 Q 382.75 10.50 382.25 10.44 Q 379.72 10.15 377.81 11.81 Q 369.93 18.71 361.44 27.44 Q 357.02 32.00 353.96 34.64 Q 352.68 35.74 351.53 34.50 Q 339.62 21.73 330.44 12.81 Q 328.29 10.72 325.31 10.46 Q 322.88 10.25 318.66 10.25 Q 316.67 10.25 317.67 11.98 Q 318.07 12.69 319.56 13.94 Q 324.18 17.94 329.69 23.56 Q 340.91 35.03 352.17 46.17 Q 352.92 46.93 353.69 46.19 Q 366.75 33.18 379.81 20.31 Z M 118.86 34.82 Q 117.87 35.51 117.02 34.66 Q 107.72 25.72 100.06 17.19 Q 97.03 13.81 93.94 11.81 Q 90.63 10.06 86.00 10.25 Q 83.54 10.14 82.31 11.06 Q 81.99 11.38 82.31 11.69 Q 99.45 28.08 117.11 46.26 Q 117.84 47.02 118.60 46.29 Q 126.77 38.58 135.06 30.06 Q 143.59 21.30 151.19 14.44 Q 152.64 13.14 153.56 11.65 Q 154.15 10.62 152.97 10.46 Q 149.41 9.99 144.56 10.74 Q 144.06 10.81 143.68 11.14 Q 132.80 20.52 122.31 31.56 Q 120.24 33.74 118.86 34.82 Z M 164.94 14.81 Q 180.32 29.33 195.91 46.06 Q 196.81 46.99 197.76 46.12 Q 209.59 35.16 220.81 23.31 Q 226.37 17.44 232.70 12.23 Q 233.88 11.24 232.39 10.85 Q 228.32 9.79 223.74 10.88 Q 223.25 11.00 222.82 11.26 Q 220.97 12.37 218.69 14.44 Q 209.24 23.01 198.26 34.94 Q 197.45 35.82 196.60 34.98 Q 185.03 23.41 173.54 12.16 Q 173.19 11.81 172.73 11.60 Q 169.71 10.23 163.28 10.53 Q 161.14 10.63 162.22 12.49 Q 162.93 12.92 164.94 14.81 Z M 272.56 33.44 Q 265.76 26.57 259.30 19.91 Q 258.94 19.56 258.51 19.29 Q 255.13 17.15 252.06 13.69 Q 249.72 11.04 246.25 10.75 Q 243.48 10.59 240.66 10.49 Q 238.24 10.58 240.00 12.25 Q 251.02 22.90 262.94 34.81 Q 268.88 40.76 273.41 46.03 Q 274.59 47.46 275.94 46.19 Q 283.46 39.10 292.19 30.19 Q 301.93 20.23 310.50 12.38 Q 311.61 11.37 310.28 10.65 Q 309.49 10.08 307.75 10.25 Q 305.31 10.49 302.00 10.50 Q 300.70 10.44 299.77 11.35 Q 287.94 22.80 276.47 34.52 Q 275.01 36.01 273.73 34.37 Q 272.99 33.87 272.56 33.44 Z M 411.69 27.56 Q 420.25 36.37 429.47 45.86 Q 430.66 47.08 431.94 45.94 Q 440.24 38.30 448.56 29.56 Q 457.80 19.87 465.99 12.61 Q 467.95 10.84 465.31 10.69 Q 460.96 10.44 457.06 10.99 Q 456.56 11.06 456.13 11.32 Q 451.21 14.31 445.94 20.69 Q 444.89 21.63 444.06 22.56 Q 441.35 25.63 438.06 28.81 Q 435.66 30.94 432.81 34.31 Q 431.24 36.14 429.55 34.43 Q 420.73 25.37 411.94 16.56 Q 409.11 13.40 406.44 11.81 Q 402.41 9.42 397.15 10.24 Q 393.73 10.65 396.31 12.94 Q 404.28 19.95 411.69 27.56 Z M 507.49 34.47 Q 497.31 24.02 488.94 15.56 Q 486.15 12.75 483.44 11.24 Q 483.00 11.00 482.51 10.90 Q 477.90 9.93 474.00 10.50 Q 472.75 10.68 473.50 11.69 Q 475.36 13.67 478.06 16.19 Q 491.90 29.07 507.25 45.64 Q 508.45 46.89 509.75 45.75 Q 516.83 39.41 523.69 32.44 Q 533.41 22.55 544.23 11.89 Q 545.30 10.83 543.82 10.54 Q 542.93 10.64 540.25 10.50 Q 535.81 10.02 533.06 12.06 Q 528.78 15.52 524.19 20.44 Q 516.26 28.92 509.77 34.55 Q 508.59 35.63 507.49 34.47 Z M 605.69 16.19 Q 602.87 19.35 600.50 22.00 Q 594.39 28.85 587.90 34.74 Q 586.70 35.90 585.56 34.69 Q 580.78 29.97 576.56 25.69 Q 571.94 20.99 567.94 17.31 Q 564.74 14.63 562.52 12.18 Q 562.19 11.81 561.73 11.61 Q 557.88 9.87 552.51 10.40 Q 550.19 10.64 551.87 12.25 Q 569.81 29.47 584.94 45.56 Q 586.42 47.14 587.94 45.69 Q 602.02 31.84 616.81 17.31 Q 619.83 14.35 622.25 12.25 Q 624.07 10.37 621.46 10.25 Q 619.01 10.57 617.25 10.50 Q 612.48 10.30 609.78 12.82 Q 609.44 13.19 608.98 13.39 Q 607.29 14.63 605.69 16.19 Z M 18.06 14.94 Q 14.62 11.27 9.50 10.50 Q 6.72 10.29 5.39 10.75 Q 3.83 11.34 5.04 12.48 Q 23.01 29.40 38.77 46.13 Q 39.83 47.25 40.94 46.19 Q 49.86 37.56 60.81 26.31 Q 67.31 19.64 75.37 12.60 Q 76.98 11.16 74.88 10.65 Q 73.27 10.60 69.50 10.50 Q 65.91 10.51 63.81 12.56 Q 52.76 23.39 41.56 34.31 Q 40.00 35.87 38.54 34.21 Q 31.98 27.24 25.81 22.44 Q 21.58 19.14 18.06 14.94 Z M 50.31 11.60 Q 50.98 10.76 49.90 10.75 Q 43.53 10.68 36.75 10.50 Q 32.89 10.40 30.11 10.91 Q 28.51 11.21 29.68 12.34 Q 33.89 16.38 37.89 20.55 Q 39.57 22.30 41.49 20.82 Q 45.51 17.73 50.31 11.60 Z M 110.94 15.31 Q 114.19 17.92 117.20 20.60 Q 118.04 21.30 118.94 20.69 Q 121.40 19.17 123.81 16.56 Q 126.17 14.01 128.44 12.19 Q 130.30 10.84 128.00 10.80 Q 122.18 11.14 114.75 10.75 Q 111.26 10.57 107.75 11.00 Q 106.73 11.25 107.43 12.03 Q 109.39 14.07 110.94 15.31 Z M 207.36 12.23 Q 208.43 11.11 206.88 11.01 Q 197.81 10.47 188.00 10.75 Q 185.47 10.82 187.24 12.63 Q 191.15 16.63 195.82 21.08 Q 196.71 21.93 197.69 21.19 Q 201.79 18.07 207.36 12.23 Z M 284.96 12.35 Q 286.38 10.67 284.18 10.56 Q 280.04 10.75 274.75 10.75 Q 269.29 10.75 264.89 10.98 Q 263.77 11.14 264.56 11.94 Q 269.20 16.62 273.66 21.15 Q 274.66 22.18 275.80 21.30 Q 280.41 17.71 284.96 12.35 Z M 360.06 15.31 Q 362.35 13.07 363.23 11.78 Q 363.85 10.56 362.49 10.56 Q 352.82 10.57 343.25 11.00 Q 341.50 11.08 342.70 12.35 Q 346.57 16.45 352.39 20.37 Q 353.50 21.11 354.56 20.31 Q 357.43 17.90 360.06 15.31 Z M 436.31 16.81 Q 438.75 14.09 441.08 12.18 Q 442.44 10.79 440.50 10.75 Q 431.17 10.54 421.44 10.95 Q 419.31 11.04 420.89 12.46 Q 424.89 16.07 428.97 20.45 Q 430.40 21.98 432.14 20.82 Q 434.40 18.95 436.31 16.81 Z M 519.06 12.00 Q 520.09 10.82 518.53 10.72 Q 514.23 10.91 507.25 10.75 Q 502.79 10.64 499.16 10.84 Q 497.66 11.12 498.71 12.24 Q 502.31 16.03 506.93 20.55 Q 508.86 22.44 510.81 20.56 Q 515.47 16.08 519.06 12.00 Z M 596.71 12.43 Q 598.42 10.46 595.82 10.50 Q 586.09 10.62 576.82 11.00 Q 575.33 11.06 576.44 12.06 Q 581.74 16.89 585.31 20.94 Q 586.43 22.21 587.78 21.18 Q 591.77 18.11 596.71 12.43 Z M 222.69 36.69 Q 221.13 38.21 218.94 40.44 Q 209.65 49.90 200.86 57.96 Q 199.54 59.16 201.25 59.65 Q 207.66 61.51 211.52 58.96 Q 211.94 58.69 212.30 58.34 Q 223.71 47.47 235.75 34.84 Q 236.22 34.34 236.70 34.83 Q 246.69 44.81 256.58 54.71 Q 256.94 55.06 257.23 55.46 Q 261.09 60.70 267.75 60.25 Q 269.08 60.16 270.75 60.00 Q 272.74 59.47 271.25 58.00 Q 257.49 44.38 243.81 30.69 Q 240.15 26.88 237.32 24.37 Q 235.88 23.21 234.52 24.48 Q 229.17 29.95 222.69 36.69 Z M 58.56 54.06 Q 63.49 49.05 69.19 43.94 Q 73.34 40.35 78.67 35.20 Q 79.36 34.45 80.06 35.19 Q 90.54 45.49 100.69 56.06 Q 103.79 59.29 107.00 60.00 Q 110.21 60.36 113.50 60.00 Q 114.81 60.00 114.71 58.70 Q 114.65 57.90 113.19 56.81 Q 110.97 55.07 108.94 53.06 Q 97.83 42.09 86.19 30.06 Q 82.54 26.27 80.21 24.56 Q 78.33 23.29 76.78 24.95 Q 59.98 42.92 43.82 58.19 Q 42.95 59.01 44.06 59.44 Q 47.43 60.84 51.00 60.00 Q 53.79 59.34 56.19 56.44 Q 57.54 55.10 58.56 54.06 Z M 140.56 51.06 Q 148.83 42.71 157.09 35.03 Q 157.91 34.23 158.69 35.05 Q 170.47 47.31 181.95 58.10 Q 182.31 58.44 182.74 58.70 Q 186.01 60.76 193.14 59.45 Q 194.46 59.20 193.50 58.27 Q 177.60 42.70 161.00 26.00 Q 157.58 22.56 155.31 24.81 Q 138.46 41.59 121.75 58.25 Q 120.75 59.21 122.08 59.60 Q 127.18 61.07 131.04 59.44 Q 131.50 59.25 131.90 58.95 Q 136.24 55.42 140.56 51.06 Z M 320.06 28.94 Q 317.16 25.85 314.89 24.34 Q 313.25 23.46 311.97 24.83 Q 295.39 42.56 279.18 57.83 Q 277.57 59.35 279.75 59.75 Q 282.17 60.23 284.75 60.25 Q 287.67 60.06 290.50 57.50 Q 301.90 47.19 312.90 35.72 Q 314.09 34.43 315.31 35.69 Q 326.60 47.70 338.06 58.19 Q 340.37 60.30 344.00 60.00 Q 346.81 59.94 349.19 59.94 Q 351.17 59.85 349.50 58.25 Q 334.29 44.07 320.06 28.94 Z M 392.84 35.22 Q 404.41 47.45 416.45 58.60 Q 416.81 58.94 417.25 59.18 Q 420.37 60.86 426.02 60.15 Q 428.94 59.79 426.84 57.73 Q 410.40 41.49 393.58 24.95 Q 391.69 23.09 389.86 25.00 Q 373.13 42.42 356.50 58.51 Q 356.00 59.00 356.66 59.22 Q 363.32 61.45 367.53 58.48 Q 367.94 58.19 368.31 57.85 Q 379.79 47.29 391.66 35.21 Q 392.25 34.60 392.84 35.22 Z M 491.06 44.44 Q 483.17 36.55 475.19 28.31 Q 472.62 25.76 470.85 24.49 Q 469.18 23.32 467.79 24.81 Q 451.78 41.88 435.25 57.50 Q 433.37 59.28 435.88 59.92 Q 440.55 61.13 444.48 59.39 Q 444.94 59.19 445.31 58.85 Q 456.94 48.08 469.39 35.20 Q 470.10 34.46 470.81 35.20 Q 481.15 45.79 491.81 56.44 Q 494.29 59.49 497.50 60.00 Q 501.32 60.60 504.75 59.75 Q 506.84 59.53 505.32 58.08 Q 498.17 51.54 491.06 44.44 Z M 568.06 43.44 Q 558.83 33.90 549.07 24.73 Q 547.36 23.20 545.77 24.86 Q 530.22 41.04 513.06 57.79 Q 512.23 58.60 513.04 59.43 Q 513.73 59.73 515.50 60.00 Q 521.29 60.62 525.06 57.06 Q 534.47 48.19 546.60 35.40 Q 547.82 34.04 549.07 35.38 Q 558.71 45.92 570.06 56.69 Q 574.31 60.72 580.50 60.25 Q 582.72 60.11 583.29 59.48 Q 583.76 58.56 583.01 57.85 Q 574.83 50.44 568.06 43.44 Z M 168.48 57.55 Q 163.09 52.59 159.02 49.43 Q 157.54 48.28 156.07 49.45 Q 151.79 52.88 146.49 58.01 Q 145.36 59.11 146.83 59.68 Q 148.04 60.12 149.50 60.00 Q 157.25 59.34 165.00 60.00 Q 167.33 60.19 168.31 59.60 Q 169.71 58.68 168.48 57.55 Z M 557.33 56.92 Q 552.59 52.44 549.04 49.34 Q 547.75 48.22 546.59 49.47 Q 541.70 54.76 537.31 57.81 Q 536.23 58.57 537.40 59.17 Q 538.22 59.86 539.50 59.75 Q 544.57 59.32 550.50 60.00 Q 554.30 60.61 556.27 60.38 Q 560.26 59.71 557.33 56.92 Z M 615.19 58.19 Q 614.07 59.29 615.61 59.57 Q 616.64 60.05 618.00 60.00 Q 624.89 59.74 631.75 60.00 Q 633.97 60.18 634.59 60.02 Q 636.64 59.40 635.28 57.75 Q 631.56 53.24 626.50 49.25 Q 625.35 48.34 624.30 49.36 Q 619.28 54.17 615.19 58.19 Z M 89.48 57.84 Q 83.82 52.43 79.86 49.39 Q 78.61 48.43 77.53 49.56 Q 73.31 53.98 68.50 58.00 Q 67.53 58.81 68.67 59.36 Q 70.08 59.96 72.50 59.75 Q 79.48 59.15 86.50 60.00 Q 88.85 60.25 89.63 59.03 Q 90.04 58.37 89.48 57.84 Z M 245.56 56.94 Q 241.27 53.23 237.59 49.66 Q 236.12 48.37 234.69 49.70 Q 230.22 53.87 225.94 57.69 Q 224.29 59.15 226.42 59.72 Q 228.62 59.92 231.00 59.75 Q 239.03 59.18 245.29 60.25 Q 246.44 60.38 246.74 59.26 Q 246.93 58.12 245.56 56.94 Z M 319.56 53.44 Q 317.43 51.47 314.74 49.40 Q 313.67 48.69 312.78 49.61 Q 308.86 53.29 303.31 58.06 Q 302.36 58.88 303.85 59.50 Q 304.31 59.69 304.81 59.68 Q 313.73 59.54 323.69 59.69 Q 326.32 59.72 324.69 58.06 Q 322.17 55.85 319.56 53.44 Z M 390.74 49.59 Q 384.74 54.90 382.02 57.52 Q 379.33 60.11 383.06 59.94 Q 391.35 59.56 400.50 60.00 Q 404.99 60.21 401.72 57.13 Q 397.59 53.23 393.28 49.57 Q 392.00 48.48 390.74 49.59 Z M 468.31 49.78 Q 463.17 55.21 459.40 58.00 Q 458.47 58.68 459.44 59.31 Q 460.97 60.31 463.25 60.00 Q 468.78 59.25 474.25 60.00 Q 477.47 60.44 479.75 59.75 Q 481.71 58.96 480.14 57.56 Q 475.96 53.81 471.57 49.69 Q 469.89 48.11 468.31 49.78 Z"/>
<path fill="rgb(56,55,53)" fill-opacity="1.000" d="M 668.95 6.98 Q 670.14 7.36 669.26 8.24 Q 659.14 18.34 649.13 28.01 Q 647.98 29.12 648.24 27.54 Q 648.85 25.98 648.75 24.50 Q 648.47 20.15 648.94 16.25 Q 649.00 15.75 648.82 15.28 Q 647.51 11.98 647.75 8.00 Q 647.81 7.07 648.74 7.03 Q 653.78 7.02 656.75 7.25 Q 661.81 7.70 665.50 6.75 Q 666.89 6.39 668.95 6.98 Z"/>
<path fill="rgb(56,55,53)" fill-opacity="1.000" d="M 680.00 9.36 Q 687.33 16.68 695.31 24.69 Q 700.03 29.42 703.21 33.55 Q 704.49 35.25 703.19 36.94 Q 700.51 40.61 695.81 44.31 Q 692.17 47.19 690.30 50.37 Q 690.06 50.81 689.73 51.19 Q 686.53 55.00 680.75 60.00 Q 678.15 62.25 675.81 59.44 Q 673.49 56.64 675.06 54.56 Q 678.29 50.57 683.19 46.19 Q 688.02 41.87 692.97 36.06 Q 694.11 34.75 692.89 33.51 Q 688.17 28.70 680.56 21.21 Q 679.67 20.34 678.51 20.78 Q 677.03 21.18 675.31 23.06 Q 671.43 27.33 665.08 33.01 Q 664.42 33.58 665.06 34.18 Q 667.01 35.99 668.44 37.81 Q 669.57 39.25 670.77 37.88 Q 674.54 33.58 677.67 31.08 Q 678.81 30.17 679.90 31.13 Q 682.78 33.67 682.71 35.19 Q 682.69 35.69 682.36 36.07 Q 677.09 42.27 668.75 49.75 Q 668.09 50.34 667.47 49.72 Q 659.50 41.84 653.16 36.55 Q 651.81 35.42 653.05 34.19 Q 665.57 21.80 677.73 9.38 Q 678.85 8.23 680.00 9.36 Z"/>
<path fill="rgb(70,70,67)" fill-opacity="1.000" d="M 387.71 10.18 Q 389.54 10.43 388.31 11.81 Q 384.52 15.67 379.81 20.31 Q 366.75 33.18 353.69 46.19 Q 352.92 46.93 352.17 46.17 Q 340.91 35.03 329.69 23.56 Q 324.18 17.94 319.56 13.94 Q 318.07 12.69 317.67 11.98 Q 316.67 10.25 318.66 10.25 Q 322.88 10.25 325.31 10.46 Q 328.29 10.72 330.44 12.81 Q 339.62 21.73 351.53 34.50 Q 352.68 35.74 353.96 34.64 Q 357.02 32.00 361.44 27.44 Q 369.93 18.71 377.81 11.81 Q 379.72 10.15 382.25 10.44 Q 382.75 10.50 383.24 10.39 Q 385.59 9.88 387.71 10.18 Z"/>
<path fill="rgb(70,70,67)" fill-opacity="1.000" d="M 86.00 10.25 Q 90.63 10.06 93.94 11.81 Q 97.03 13.81 100.06 17.19 Q 107.72 25.72 117.02 34.66 Q 117.87 35.51 118.86 34.82 Q 120.24 33.74 122.31 31.56 Q 132.80 20.52 143.68 11.14 Q 144.06 10.81 144.56 10.74 Q 149.41 9.99 152.97 10.46 Q 154.15 10.62 153.56 11.65 Q 152.64 13.14 151.19 14.44 Q 143.59 21.30 135.06 30.06 Q 126.77 38.58 118.60 46.29 Q 117.84 47.02 117.11 46.26 Q 99.45 28.08 82.31 11.69 Q 81.99 11.38 82.31 11.06 Q 83.54 10.14 86.00 10.25 Z"/>
<path fill="rgb(71,71,68)" fill-opacity="1.000" d="M 163.28 10.53 Q 169.71 10.23 172.73 11.60 Q 173.19 11.81 173.54 12.16 Q 185.03 23.41 196.60 34.98 Q 197.45 35.82 198.26 34.94 Q 209.24 23.01 218.69 14.44 Q 220.97 12.37 222.82 11.26 Q 223.25 11.00 223.74 10.88 Q 228.32 9.79 232.39 10.85 Q 233.88 11.24 232.70 12.23 Q 226.37 17.44 220.81 23.31 Q 209.59 35.16 197.76 46.12 Q 196.81 46.99 195.91 46.06 Q 180.32 29.33 164.94 14.81 Q 162.93 12.92 162.22 12.49 Q 161.14 10.63 163.28 10.53 Z"/>
<path fill="rgb(71,71,68)" fill-opacity="1.000" d="M 307.75 10.25 Q 309.49 10.08 310.28 10.65 Q 311.61 11.37 310.50 12.38 Q 301.93 20.23 292.19 30.19 Q 283.46 39.10 275.94 46.19 Q 274.59 47.46 273.41 46.03 Q 268.88 40.76 262.94 34.81 Q 251.02 22.90 240.00 12.25 Q 238.24 10.58 240.66 10.49 Q 243.48 10.59 246.25 10.75 Q 249.72 11.04 252.06 13.69 Q 255.13 17.15 258.51 19.29 Q 258.94 19.56 259.30 19.91 Q 265.76 26.57 272.56 33.44 Q 272.99 33.87 273.73 34.37 Q 275.01 36.01 276.47 34.52 Q 287.94 22.80 299.77 11.35 Q 300.70 10.44 302.00 10.50 Q 305.31 10.49 307.75 10.25 Z"/>
<path fill="rgb(73,72,70)" fill-opacity="1.000" d="M 397.15 10.24 Q 402.41 9.42 406.44 11.81 Q 409.11 13.40 411.94 16.56 Q 420.73 25.37 429.55 34.43 Q 431.24 36.14 432.81 34.31 Q 435.66 30.94 438.06 28.81 Q 441.35 25.63 444.06 22.56 Q 444.89 21.63 445.94 20.69 Q 451.21 14.31 456.13 11.32 Q 456.56 11.06 457.06 10.99 Q 460.96 10.44 465.31 10.69 Q 467.95 10.84 465.99 12.61 Q 457.80 19.87 448.56 29.56 Q 440.24 38.30 431.94 45.94 Q 430.66 47.08 429.47 45.86 Q 420.25 36.37 411.69 27.56 Q 404.28 19.95 396.31 12.94 Q 393.73 10.65 397.15 10.24 Z"/>
<path fill="rgb(74,73,71)" fill-opacity="1.000" d="M 483.44 11.24 Q 486.15 12.75 488.94 15.56 Q 497.31 24.02 507.49 34.47 Q 508.59 35.63 509.77 34.55 Q 516.26 28.92 524.19 20.44 Q 528.78 15.52 533.06 12.06 Q 535.81 10.02 540.25 10.50 Q 542.93 10.64 543.82 10.54 Q 545.30 10.83 544.23 11.89 Q 533.41 22.55 523.69 32.44 Q 516.83 39.41 509.75 45.75 Q 508.45 46.89 507.25 45.64 Q 491.90 29.07 478.06 16.19 Q 475.36 13.67 473.50 11.69 Q 472.75 10.68 474.00 10.50 Q 477.90 9.93 482.51 10.90 Q 483.00 11.00 483.44 11.24 Z"/>
<path fill="rgb(74,73,71)" fill-opacity="1.000" d="M 562.52 12.18 Q 564.74 14.63 567.94 17.31 Q 571.94 20.99 576.56 25.69 Q 580.78 29.97 585.56 34.69 Q 586.70 35.90 587.90 34.74 Q 594.39 28.85 600.50 22.00 Q 602.87 19.35 605.69 16.19 Q 607.29 14.63 608.98 13.39 Q 609.44 13.19 609.78 12.82 Q 612.48 10.30 617.25 10.50 Q 619.01 10.57 621.46 10.25 Q 624.07 10.37 622.25 12.25 Q 619.83 14.35 616.81 17.31 Q 602.02 31.84 587.94 45.69 Q 586.42 47.14 584.94 45.56 Q 569.81 29.47 551.87 12.25 Q 550.19 10.64 552.51 10.40 Q 557.88 9.87 561.73 11.61 Q 562.19 11.81 562.52 12.18 Z"/>
<path fill="rgb(71,71,68)" fill-opacity="1.000" d="M 9.50 10.50 Q 14.62 11.27 18.06 14.94 Q 21.58 19.14 25.81 22.44 Q 31.98 27.24 38.54 34.21 Q 40.00 35.87 41.56 34.31 Q 52.76 23.39 63.81 12.56 Q 65.91 10.51 69.50 10.50 Q 73.27 10.60 74.88 10.65 Q 76.98 11.16 75.37 12.60 Q 67.31 19.64 60.81 26.31 Q 49.86 37.56 40.94 46.19 Q 39.83 47.25 38.77 46.13 Q 23.01 29.40 5.04 12.48 Q 3.83 11.34 5.39 10.75 Q 6.72 10.29 9.50 10.50 Z"/>
<path fill="rgb(70,70,67)" fill-opacity="1.000" d="M 36.75 10.50 Q 43.53 10.68 49.90 10.75 Q 50.98 10.76 50.31 11.60 Q 45.51 17.73 41.49 20.82 Q 39.57 22.30 37.89 20.55 Q 33.89 16.38 29.68 12.34 Q 28.51 11.21 30.11 10.91 Q 32.89 10.40 36.75 10.50 Z"/>
<path fill="rgb(73,72,70)" fill-opacity="1.000" d="M 114.75 10.75 Q 122.18 11.14 128.00 10.80 Q 130.30 10.84 128.44 12.19 Q 126.17 14.01 123.81 16.56 Q 121.40 19.17 118.94 20.69 Q 118.04 21.30 117.20 20.60 Q 114.19 17.92 110.94 15.31 Q 109.39 14.07 107.43 12.03 Q 106.73 11.25 107.75 11.00 Q 111.26 10.57 114.75 10.75 Z"/>
<path fill="rgb(70,70,67)" fill-opacity="1.000" d="M 206.88 11.01 Q 208.43 11.11 207.36 12.23 Q 201.79 18.07 197.69 21.19 Q 196.71 21.93 195.82 21.08 Q 191.15 16.63 187.24 12.63 Q 185.47 10.82 188.00 10.75 Q 197.81 10.47 206.88 11.01 Z"/>
<path fill="rgb(70,70,67)" fill-opacity="1.000" d="M 274.75 10.75 Q 280.04 10.75 284.18 10.56 Q 286.38 10.67 284.96 12.35 Q 280.41 17.71 275.80 21.30 Q 274.66 22.18 273.66 21.15 Q 269.20 16.62 264.56 11.94 Q 263.77 11.14 264.89 10.98 Q 269.29 10.75 274.75 10.75 Z"/>
<path fill="rgb(73,72,70)" fill-opacity="1.000" d="M 362.49 10.56 Q 363.85 10.56 363.23 11.78 Q 362.35 13.07 360.06 15.31 Q 357.43 17.90 354.56 20.31 Q 353.50 21.11 352.39 20.37 Q 346.57 16.45 342.70 12.35 Q 341.50 11.08 343.25 11.00 Q 352.82 10.57 362.49 10.56 Z"/>
<path fill="rgb(73,72,70)" fill-opacity="1.000" d="M 440.50 10.75 Q 442.44 10.79 441.08 12.18 Q 438.75 14.09 436.31 16.81 Q 434.40 18.95 432.14 20.82 Q 430.40 21.98 428.97 20.45 Q 424.89 16.07 420.89 12.46 Q 419.31 11.04 421.44 10.95 Q 431.17 10.54 440.50 10.75 Z"/>
<path fill="rgb(74,73,71)" fill-opacity="1.000" d="M 507.25 10.75 Q 514.23 10.91 518.53 10.72 Q 520.09 10.82 519.06 12.00 Q 515.47 16.08 510.81 20.56 Q 508.86 22.44 506.93 20.55 Q 502.31 16.03 498.71 12.24 Q 497.66 11.12 499.16 10.84 Q 502.79 10.64 507.25 10.75 Z"/>
<path fill="rgb(74,73,71)" fill-opacity="1.000" d="M 595.82 10.50 Q 598.42 10.46 596.71 12.43 Q 591.77 18.11 587.78 21.18 Q 586.43 22.21 585.31 20.94 Q 581.74 16.89 576.44 12.06 Q 575.33 11.06 576.82 11.00 Q 586.09 10.62 595.82 10.50 Z"/>
<path fill="rgb(71,71,68)" fill-opacity="1.000" d="M 3.25 24.50 Q 17.16 39.43 36.75 58.25 Q 37.48 58.95 36.36 59.67 Q 35.94 59.94 35.44 59.95 Q 33.11 60.04 29.75 60.00 Q 26.16 59.96 24.95 57.99 Q 24.69 57.56 24.33 57.21 Q 12.84 45.87 2.56 34.94 Q 1.90 34.23 0.00 33.69 Q 0.00 28.94 0.00 24.19 Q 0.42 24.06 0.50 23.25 Q 0.66 21.61 3.25 24.50 Z"/>
<path fill="rgb(71,71,68)" fill-opacity="1.000" d="M 237.32 24.37 Q 240.15 26.88 243.81 30.69 Q 257.49 44.38 271.25 58.00 Q 272.74 59.47 270.75 60.00 Q 269.08 60.16 267.75 60.25 Q 261.09 60.70 257.23 55.46 Q 256.94 55.06 256.58 54.71 Q 246.69 44.81 236.70 34.83 Q 236.22 34.34 235.75 34.84 Q 223.71 47.47 212.30 58.34 Q 211.94 58.69 211.52 58.96 Q 207.66 61.51 201.25 59.65 Q 199.54 59.16 200.86 57.96 Q 209.65 49.90 218.94 40.44 Q 221.13 38.21 222.69 36.69 Q 229.17 29.95 234.52 24.48 Q 235.88 23.21 237.32 24.37 Z"/>
<path fill="rgb(70,70,67)" fill-opacity="1.000" d="M 80.21 24.56 Q 82.54 26.27 86.19 30.06 Q 97.83 42.09 108.94 53.06 Q 110.97 55.07 113.19 56.81 Q 114.65 57.90 114.71 58.70 Q 114.81 60.00 113.50 60.00 Q 110.21 60.36 107.00 60.00 Q 103.79 59.29 100.69 56.06 Q 90.54 45.49 80.06 35.19 Q 79.36 34.45 78.67 35.20 Q 73.34 40.35 69.19 43.94 Q 63.49 49.05 58.56 54.06 Q 57.54 55.10 56.19 56.44 Q 53.79 59.34 51.00 60.00 Q 47.43 60.84 44.06 59.44 Q 42.95 59.01 43.82 58.19 Q 59.98 42.92 76.78 24.95 Q 78.33 23.29 80.21 24.56 Z"/>
<path fill="rgb(70,70,67)" fill-opacity="1.000" d="M 161.00 26.00 Q 177.60 42.70 193.50 58.27 Q 194.46 59.20 193.14 59.45 Q 186.01 60.76 182.74 58.70 Q 182.31 58.44 181.95 58.10 Q 170.47 47.31 158.69 35.05 Q 157.91 34.23 157.09 35.03 Q 148.83 42.71 140.56 51.06 Q 136.24 55.42 131.90 58.95 Q 131.50 59.25 131.04 59.44 Q 127.18 61.07 122.08 59.60 Q 120.75 59.21 121.75 58.25 Q 138.46 41.59 155.31 24.81 Q 157.58 22.56 161.00 26.00 Z"/>
<path fill="rgb(70,70,67)" fill-opacity="1.000" d="M 314.89 24.34 Q 317.16 25.85 320.06 28.94 Q 334.29 44.07 349.50 58.25 Q 351.17 59.85 349.19 59.94 Q 346.81 59.94 344.00 60.00 Q 340.37 60.30 338.06 58.19 Q 326.60 47.70 315.31 35.69 Q 314.09 34.43 312.90 35.72 Q 301.90 47.19 290.50 57.50 Q 287.67 60.06 284.75 60.25 Q 282.17 60.23 279.75 59.75 Q 277.57 59.35 279.18 57.83 Q 295.39 42.56 311.97 24.83 Q 313.25 23.46 314.89 24.34 Z"/>
<path fill="rgb(70,70,67)" fill-opacity="1.000" d="M 393.58 24.95 Q 410.40 41.49 426.84 57.73 Q 428.94 59.79 426.02 60.15 Q 420.37 60.86 417.25 59.18 Q 416.81 58.94 416.45 58.60 Q 404.41 47.45 392.84 35.22 Q 392.25 34.60 391.66 35.21 Q 379.79 47.29 368.31 57.85 Q 367.94 58.19 367.53 58.48 Q 363.32 61.45 356.66 59.22 Q 356.00 59.00 356.50 58.51 Q 373.13 42.42 389.86 25.00 Q 391.69 23.09 393.58 24.95 Z"/>
<path fill="rgb(73,72,70)" fill-opacity="1.000" d="M 470.85 24.49 Q 472.62 25.76 475.19 28.31 Q 483.17 36.55 491.06 44.44 Q 498.17 51.54 505.32 58.08 Q 506.84 59.53 504.75 59.75 Q 501.32 60.60 497.50 60.00 Q 494.29 59.49 491.81 56.44 Q 481.15 45.79 470.81 35.20 Q 470.10 34.46 469.39 35.20 Q 456.94 48.08 445.31 58.85 Q 444.94 59.19 444.48 59.39 Q 440.55 61.13 435.88 59.92 Q 433.37 59.28 435.25 57.50 Q 451.78 41.88 467.79 24.81 Q 469.18 23.32 470.85 24.49 Z"/>
<path fill="rgb(74,73,71)" fill-opacity="1.000" d="M 549.07 24.73 Q 558.83 33.90 568.06 43.44 Q 574.83 50.44 583.01 57.85 Q 583.76 58.56 583.29 59.48 Q 582.72 60.11 580.50 60.25 Q 574.31 60.72 570.06 56.69 Q 558.71 45.92 549.07 35.38 Q 547.82 34.04 546.60 35.40 Q 534.47 48.19 525.06 57.06 Q 521.29 60.62 515.50 60.00 Q 513.73 59.73 513.04 59.43 Q 512.23 58.60 513.06 57.79 Q 530.22 41.04 545.77 24.86 Q 547.36 23.20 549.07 24.73 Z"/>
<path fill="rgb(56,55,53)" fill-opacity="1.000" d="M 650.69 42.81 Q 658.78 52.46 668.40 61.26 Q 670.46 63.14 667.68 63.32 Q 657.71 63.96 649.50 63.50 Q 647.42 63.38 647.27 61.31 Q 647.11 58.01 647.75 55.00 Q 648.28 52.50 647.87 49.56 Q 647.81 49.06 647.91 48.57 Q 648.73 44.38 649.61 42.90 Q 650.09 42.10 650.69 42.81 Z"/>
<path fill="rgb(70,70,67)" fill-opacity="1.000" d="M 2.56 48.44 Q 6.08 53.08 11.16 57.14 Q 11.56 57.44 11.75 57.90 Q 12.50 60.30 10.19 60.19 Q 4.98 59.94 0.00 59.69 Q 0.00 53.44 0.00 47.19 Q 1.59 47.16 2.56 48.44 Z"/>
<path fill="rgb(70,70,67)" fill-opacity="1.000" d="M 159.02 49.43 Q 163.09 52.59 168.48 57.55 Q 169.71 58.68 168.31 59.60 Q 167.33 60.19 165.00 60.00 Q 157.25 59.34 149.50 60.00 Q 148.04 60.12 146.83 59.68 Q 145.36 59.11 146.49 58.01 Q 151.79 52.88 156.07 49.45 Q 157.54 48.28 159.02 49.43 Z"/>
<path fill="rgb(73,72,70)" fill-opacity="1.000" d="M 549.04 49.34 Q 552.59 52.44 557.33 56.92 Q 560.26 59.71 556.27 60.38 Q 554.30 60.61 550.50 60.00 Q 544.57 59.32 539.50 59.75 Q 538.22 59.86 537.40 59.17 Q 536.23 58.57 537.31 57.81 Q 541.70 54.76 546.59 49.47 Q 547.75 48.22 549.04 49.34 Z"/>
<path fill="rgb(71,71,68)" fill-opacity="1.000" d="M 626.50 49.25 Q 631.56 53.24 635.28 57.75 Q 636.64 59.40 634.59 60.02 Q 633.97 60.18 631.75 60.00 Q 624.89 59.74 618.00 60.00 Q 616.64 60.05 615.61 59.57 Q 614.07 59.29 615.19 58.19 Q 619.28 54.17 624.30 49.36 Q 625.35 48.34 626.50 49.25 Z"/>
<path fill="rgb(70,70,67)" fill-opacity="1.000" d="M 79.86 49.39 Q 83.82 52.43 89.48 57.84 Q 90.04 58.37 89.63 59.03 Q 88.85 60.25 86.50 60.00 Q 79.48 59.15 72.50 59.75 Q 70.08 59.96 68.67 59.36 Q 67.53 58.81 68.50 58.00 Q 73.31 53.98 77.53 49.56 Q 78.61 48.43 79.86 49.39 Z"/>
<path fill="rgb(73,72,70)" fill-opacity="1.000" d="M 237.59 49.66 Q 241.27 53.23 245.56 56.94 Q 246.93 58.12 246.74 59.26 Q 246.44 60.38 245.29 60.25 Q 239.03 59.18 231.00 59.75 Q 228.62 59.92 226.42 59.72 Q 224.29 59.15 225.94 57.69 Q 230.22 53.87 234.69 49.70 Q 236.12 48.37 237.59 49.66 Z"/>
<path fill="rgb(70,70,67)" fill-opacity="1.000" d="M 314.74 49.40 Q 317.43 51.47 319.56 53.44 Q 322.17 55.85 324.69 58.06 Q 326.32 59.72 323.69 59.69 Q 313.73 59.54 304.81 59.68 Q 304.31 59.69 303.85 59.50 Q 302.36 58.88 303.31 58.06 Q 308.86 53.29 312.78 49.61 Q 313.67 48.69 314.74 49.40 Z"/>
<path fill="rgb(70,70,67)" fill-opacity="1.000" d="M 393.28 49.57 Q 397.59 53.23 401.72 57.13 Q 404.99 60.21 400.50 60.00 Q 391.35 59.56 383.06 59.94 Q 379.33 60.11 382.02 57.52 Q 384.74 54.90 390.74 49.59 Q 392.00 48.48 393.28 49.57 Z"/>
<path fill="rgb(73,72,70)" fill-opacity="1.000" d="M 471.57 49.69 Q 475.96 53.81 480.14 57.56 Q 481.71 58.96 479.75 59.75 Q 477.47 60.44 474.25 60.00 Q 468.78 59.25 463.25 60.00 Q 460.97 60.31 459.44 59.31 Q 458.47 58.68 459.40 58.00 Q 463.17 55.21 468.31 49.78 Q 469.89 48.11 471.57 49.69 Z"/>
</svg>